# xmcd CD database file
#
# Track frame offsets:
#	150
#	18897
#	43210
#
# Disc length: 825 seconds
#
# Revision: 0
# Processed by: cddbd v1.5.1PL0 Copyright (c) Steve Scherf et al.
# Submitted via: CDex 1.51
#
DISCID=1c033703
DTITLE=TOKIO - 風になって
DYEAR=1900
DGENRE=JPop
TTITLE0=風になって
TTITLE1=涙のウェディングベル
TTITLE2=風になって（オリジナル・カラオケ）
EXTD=
EXTT0=
EXTT1=
EXTT2=
PLAYORDER=
